<svg xmlns="http://www.w3.org/2000/svg" xmlns:xlink="http://www.w3.org/1999/xlink" width="500" zoomAndPan="magnify" viewBox="0 0 375 374.999991" height="500" preserveAspectRatio="xMidYMid meet" version="1.0"><defs><g/></defs><g fill="#8b73ff" fill-opacity="1"><g transform="translate(366.777095, 90.350684)"><g><path d="M -189.941406 62.617188 L -169.765625 62.617188 L -169.417969 33.746094 C -169.417969 30.265625 -168.375 27.484375 -166.285156 25.394531 C -164.199219 23.308594 -162.113281 21.917969 -160.023438 21.222656 C -158.632812 20.523438 -156.894531 20.523438 -154.109375 20.523438 C -151.328125 20.523438 -148.894531 21.917969 -146.804688 25.394531 L -145.761719 26.4375 C -145.066406 27.832031 -143.675781 30.265625 -142.285156 33.746094 C -140.542969 37.222656 -138.457031 40.703125 -136.371094 44.875 C -133.933594 49.050781 -131.5 53.226562 -128.714844 57.75 C -125.933594 61.921875 -122.800781 66.097656 -119.324219 70.273438 L -131.152344 70.273438 C -139.152344 70.273438 -146.804688 71.664062 -154.460938 75.140625 C -161.765625 78.273438 -168.027344 82.796875 -172.898438 88.710938 L -174.636719 90.796875 C -181.59375 98.796875 -185.074219 107.84375 -185.074219 117.929688 C -185.074219 127.671875 -181.59375 136.71875 -174.984375 145.066406 C -170.113281 150.980469 -163.851562 155.503906 -156.546875 158.980469 C -148.894531 162.113281 -141.238281 163.851562 -132.890625 163.851562 L -9.742188 163.851562 L -9.742188 143.675781 L -46.269531 143.675781 L -46.269531 20.523438 L -14.609375 20.523438 L -14.609375 0.347656 L -97.753906 0.347656 L -97.753906 20.523438 L -66.097656 20.523438 L -66.097656 70.273438 L -87.316406 70.273438 C -91.492188 68.878906 -97.058594 64.011719 -104.710938 55.660156 C -112.367188 47.3125 -119.671875 34.789062 -127.324219 18.089844 L -128.019531 17.046875 L -130.109375 13.914062 C -136.371094 5.21875 -145.066406 1.042969 -155.851562 1.042969 C -159.675781 1.042969 -163.15625 1.390625 -166.285156 2.433594 C -173.246094 4.523438 -178.8125 8.695312 -182.984375 14.261719 C -187.160156 19.828125 -189.246094 26.089844 -189.59375 33.746094 Z M -90.449219 90.101562 L -90.101562 90.449219 L -86.96875 90.449219 L -86.96875 90.101562 L -67.488281 90.101562 L -67.488281 143.328125 L -133.933594 143.328125 C -139.152344 143.328125 -144.023438 142.285156 -148.894531 140.195312 C -153.761719 138.109375 -157.589844 135.324219 -160.722656 131.847656 C -164.199219 127.324219 -166.285156 122.453125 -166.285156 117.582031 C -166.285156 112.367188 -164.199219 107.496094 -160.722656 103.320312 L -158.980469 101.234375 C -155.851562 97.753906 -152.023438 94.972656 -147.152344 92.882812 C -142.285156 90.796875 -137.414062 90.101562 -132.195312 90.101562 Z M -90.449219 90.101562 "/></g></g></g><g fill="#8b73ff" fill-opacity="1"><g transform="translate(8.222484, 180.816286)"><g><path d="M 189.941406 -62.617188 L 169.765625 -62.617188 L 169.417969 -33.746094 C 169.417969 -30.265625 168.375 -27.484375 166.285156 -25.394531 C 164.199219 -23.308594 162.113281 -21.917969 160.023438 -21.222656 C 158.632812 -20.523438 156.894531 -20.523438 154.109375 -20.523438 C 151.328125 -20.523438 148.894531 -21.917969 146.804688 -25.394531 L 145.761719 -26.4375 C 145.066406 -27.832031 143.675781 -30.265625 142.285156 -33.746094 C 140.542969 -37.222656 138.457031 -40.703125 136.371094 -44.875 C 133.933594 -49.050781 131.5 -53.226562 128.714844 -57.75 C 125.933594 -61.921875 122.800781 -66.097656 119.324219 -70.273438 L 131.152344 -70.273438 C 139.152344 -70.273438 146.804688 -71.664062 154.460938 -75.140625 C 161.765625 -78.273438 168.027344 -82.796875 172.898438 -88.710938 L 174.636719 -90.796875 C 181.59375 -98.796875 185.074219 -107.84375 185.074219 -117.929688 C 185.074219 -127.671875 181.59375 -136.71875 174.984375 -145.066406 C 170.113281 -150.980469 163.851562 -155.503906 156.546875 -158.980469 C 148.894531 -162.113281 141.238281 -163.851562 132.890625 -163.851562 L 9.742188 -163.851562 L 9.742188 -143.675781 L 46.269531 -143.675781 L 46.269531 -20.523438 L 14.609375 -20.523438 L 14.609375 -0.347656 L 97.753906 -0.347656 L 97.753906 -20.523438 L 66.097656 -20.523438 L 66.097656 -70.273438 L 87.316406 -70.273438 C 91.492188 -68.878906 97.058594 -64.011719 104.710938 -55.660156 C 112.367188 -47.3125 119.671875 -34.789062 127.324219 -18.089844 L 128.019531 -17.046875 L 130.109375 -13.914062 C 136.371094 -5.21875 145.066406 -1.042969 155.851562 -1.042969 C 159.675781 -1.042969 163.15625 -1.390625 166.285156 -2.433594 C 173.246094 -4.523438 178.8125 -8.695312 182.984375 -14.261719 C 187.160156 -19.828125 189.246094 -26.089844 189.59375 -33.746094 Z M 90.449219 -90.101562 L 90.101562 -90.449219 L 86.96875 -90.449219 L 86.96875 -90.101562 L 67.488281 -90.101562 L 67.488281 -143.328125 L 133.933594 -143.328125 C 139.152344 -143.328125 144.023438 -142.285156 148.894531 -140.195312 C 153.761719 -138.109375 157.589844 -135.324219 160.722656 -131.847656 C 164.199219 -127.324219 166.285156 -122.453125 166.285156 -117.582031 C 166.285156 -112.367188 164.199219 -107.496094 160.722656 -103.320312 L 158.980469 -101.234375 C 155.851562 -97.753906 152.023438 -94.972656 147.152344 -92.882812 C 142.285156 -90.796875 137.414062 -90.101562 132.195312 -90.101562 Z M 90.449219 -90.101562 "/></g></g></g><g fill="#e74d8c" fill-opacity="1"><g transform="translate(109.344448, 297.37493)"><g><path d="M 15.640625 0 L 9.890625 -9.96875 L 6.78125 -9.96875 L 6.78125 0 L 2.6875 0 L 2.6875 -24.921875 L 11.296875 -24.921875 C 13.210938 -24.921875 14.832031 -24.585938 16.15625 -23.921875 C 17.476562 -23.253906 18.46875 -22.359375 19.125 -21.234375 C 19.78125 -20.109375 20.109375 -18.851562 20.109375 -17.46875 C 20.109375 -15.84375 19.632812 -14.363281 18.6875 -13.03125 C 17.75 -11.707031 16.300781 -10.804688 14.34375 -10.328125 L 20.515625 0 Z M 6.78125 -13.234375 L 11.296875 -13.234375 C 12.828125 -13.234375 13.976562 -13.613281 14.75 -14.375 C 15.53125 -15.144531 15.921875 -16.175781 15.921875 -17.46875 C 15.921875 -18.757812 15.535156 -19.769531 14.765625 -20.5 C 14.003906 -21.226562 12.847656 -21.59375 11.296875 -21.59375 L 6.78125 -21.59375 Z M 6.78125 -13.234375 "/></g></g></g><g fill="#e74d8c" fill-opacity="1"><g transform="translate(134.267758, 297.37493)"><g><path d="M 14.0625 0.25 C 11.738281 0.25 9.601562 -0.289062 7.65625 -1.375 C 5.707031 -2.46875 4.164062 -3.988281 3.03125 -5.9375 C 1.894531 -7.882812 1.328125 -10.078125 1.328125 -12.515625 C 1.328125 -14.953125 1.894531 -17.140625 3.03125 -19.078125 C 4.164062 -21.015625 5.707031 -22.523438 7.65625 -23.609375 C 9.601562 -24.703125 11.738281 -25.25 14.0625 -25.25 C 16.40625 -25.25 18.550781 -24.703125 20.5 -23.609375 C 22.445312 -22.523438 23.976562 -21.015625 25.09375 -19.078125 C 26.21875 -17.140625 26.78125 -14.953125 26.78125 -12.515625 C 26.78125 -10.078125 26.21875 -7.882812 25.09375 -5.9375 C 23.976562 -3.988281 22.445312 -2.46875 20.5 -1.375 C 18.550781 -0.289062 16.40625 0.25 14.0625 0.25 Z M 14.0625 -3.296875 C 15.707031 -3.296875 17.175781 -3.671875 18.46875 -4.421875 C 19.757812 -5.179688 20.769531 -6.257812 21.5 -7.65625 C 22.226562 -9.050781 22.59375 -10.671875 22.59375 -12.515625 C 22.59375 -14.359375 22.226562 -15.972656 21.5 -17.359375 C 20.769531 -18.742188 19.757812 -19.804688 18.46875 -20.546875 C 17.175781 -21.285156 15.707031 -21.65625 14.0625 -21.65625 C 12.40625 -21.65625 10.929688 -21.285156 9.640625 -20.546875 C 8.347656 -19.804688 7.335938 -18.742188 6.609375 -17.359375 C 5.878906 -15.972656 5.515625 -14.359375 5.515625 -12.515625 C 5.515625 -10.671875 5.878906 -9.050781 6.609375 -7.65625 C 7.335938 -6.257812 8.347656 -5.179688 9.640625 -4.421875 C 10.929688 -3.671875 12.40625 -3.296875 14.0625 -3.296875 Z M 14.0625 -3.296875 "/></g></g></g><g fill="#e74d8c" fill-opacity="1"><g transform="translate(164.641627, 297.37493)"><g><path d="M 28.9375 -24.921875 L 28.9375 0 L 24.84375 0 L 24.84375 -17.0625 L 17.25 0 L 14.421875 0 L 6.78125 -17.0625 L 6.78125 0 L 2.6875 0 L 2.6875 -24.921875 L 7.09375 -24.921875 L 15.84375 -5.375 L 24.5625 -24.921875 Z M 28.9375 -24.921875 "/></g></g></g><g fill="#e74d8c" fill-opacity="1"><g transform="translate(198.529681, 297.37493)"><g><path d="M 6.78125 -24.921875 L 6.78125 0 L 2.6875 0 L 2.6875 -24.921875 Z M 6.78125 -24.921875 "/></g></g></g><g fill="#e74d8c" fill-opacity="1"><g transform="translate(210.256874, 297.37493)"><g><path d="M 23.171875 0 L 19.078125 0 L 6.78125 -18.609375 L 6.78125 0 L 2.6875 0 L 2.6875 -24.953125 L 6.78125 -24.953125 L 19.078125 -6.390625 L 19.078125 -24.953125 L 23.171875 -24.953125 Z M 23.171875 0 "/></g></g></g><g fill="#e74d8c" fill-opacity="1"><g transform="translate(238.37162, 297.37493)"><g><path d="M 17.71875 -5.09375 L 7.28125 -5.09375 L 5.484375 0 L 1.21875 0 L 10.140625 -24.953125 L 14.875 -24.953125 L 23.8125 0 L 19.5 0 Z M 16.5625 -8.421875 L 12.515625 -20.015625 L 8.421875 -8.421875 Z M 16.5625 -8.421875 "/></g></g></g><g fill="#e74d8c" fill-opacity="1"><g transform="translate(92.472296, 325.326615)"><g><path d="M 15.640625 0 L 9.890625 -9.96875 L 6.78125 -9.96875 L 6.78125 0 L 2.6875 0 L 2.6875 -24.921875 L 11.296875 -24.921875 C 13.210938 -24.921875 14.832031 -24.585938 16.15625 -23.921875 C 17.476562 -23.253906 18.46875 -22.359375 19.125 -21.234375 C 19.78125 -20.109375 20.109375 -18.851562 20.109375 -17.46875 C 20.109375 -15.84375 19.632812 -14.363281 18.6875 -13.03125 C 17.75 -11.707031 16.300781 -10.804688 14.34375 -10.328125 L 20.515625 0 Z M 6.78125 -13.234375 L 11.296875 -13.234375 C 12.828125 -13.234375 13.976562 -13.613281 14.75 -14.375 C 15.53125 -15.144531 15.921875 -16.175781 15.921875 -17.46875 C 15.921875 -18.757812 15.535156 -19.769531 14.765625 -20.5 C 14.003906 -21.226562 12.847656 -21.59375 11.296875 -21.59375 L 6.78125 -21.59375 Z M 6.78125 -13.234375 "/></g></g></g><g fill="#e74d8c" fill-opacity="1"><g transform="translate(117.395606, 325.326615)"><g><path d="M 17.71875 -5.09375 L 7.28125 -5.09375 L 5.484375 0 L 1.21875 0 L 10.140625 -24.953125 L 14.875 -24.953125 L 23.8125 0 L 19.5 0 Z M 16.5625 -8.421875 L 12.515625 -20.015625 L 8.421875 -8.421875 Z M 16.5625 -8.421875 "/></g></g></g><g fill="#e74d8c" fill-opacity="1"><g transform="translate(144.649743, 325.326615)"><g><path d="M 17.359375 -24.921875 L 17.359375 -21.59375 L 6.78125 -21.59375 L 6.78125 -14.234375 L 15.03125 -14.234375 L 15.03125 -10.90625 L 6.78125 -10.90625 L 6.78125 0 L 2.6875 0 L 2.6875 -24.921875 Z M 17.359375 -24.921875 "/></g></g></g><g fill="#e74d8c" fill-opacity="1"><g transform="translate(165.37753, 325.326615)"><g><path d="M 17.359375 -24.921875 L 17.359375 -21.59375 L 6.78125 -21.59375 L 6.78125 -14.234375 L 15.03125 -14.234375 L 15.03125 -10.90625 L 6.78125 -10.90625 L 6.78125 0 L 2.6875 0 L 2.6875 -24.921875 Z M 17.359375 -24.921875 "/></g></g></g><g fill="#e74d8c" fill-opacity="1"><g transform="translate(186.105316, 325.326615)"><g><path d="M 6.78125 -21.625 L 6.78125 -14.3125 L 15.390625 -14.3125 L 15.390625 -10.96875 L 6.78125 -10.96875 L 6.78125 -3.328125 L 16.453125 -3.328125 L 16.453125 0 L 2.6875 0 L 2.6875 -24.953125 L 16.453125 -24.953125 L 16.453125 -21.625 Z M 6.78125 -21.625 "/></g></g></g><g fill="#e74d8c" fill-opacity="1"><g transform="translate(207.15583, 325.326615)"><g><path d="M 18.796875 -24.921875 L 18.796875 -21.59375 L 12.15625 -21.59375 L 12.15625 0 L 8.0625 0 L 8.0625 -21.59375 L 1.40625 -21.59375 L 1.40625 -24.921875 Z M 18.796875 -24.921875 "/></g></g></g><g fill="#e74d8c" fill-opacity="1"><g transform="translate(229.640716, 325.326615)"><g><path d="M 18.796875 -24.921875 L 18.796875 -21.59375 L 12.15625 -21.59375 L 12.15625 0 L 8.0625 0 L 8.0625 -21.59375 L 1.40625 -21.59375 L 1.40625 -24.921875 Z M 18.796875 -24.921875 "/></g></g></g><g fill="#e74d8c" fill-opacity="1"><g transform="translate(252.125602, 325.326615)"><g><path d="M 14.0625 0.25 C 11.738281 0.25 9.601562 -0.289062 7.65625 -1.375 C 5.707031 -2.46875 4.164062 -3.988281 3.03125 -5.9375 C 1.894531 -7.882812 1.328125 -10.078125 1.328125 -12.515625 C 1.328125 -14.953125 1.894531 -17.140625 3.03125 -19.078125 C 4.164062 -21.015625 5.707031 -22.523438 7.65625 -23.609375 C 9.601562 -24.703125 11.738281 -25.25 14.0625 -25.25 C 16.40625 -25.25 18.550781 -24.703125 20.5 -23.609375 C 22.445312 -22.523438 23.976562 -21.015625 25.09375 -19.078125 C 26.21875 -17.140625 26.78125 -14.953125 26.78125 -12.515625 C 26.78125 -10.078125 26.21875 -7.882812 25.09375 -5.9375 C 23.976562 -3.988281 22.445312 -2.46875 20.5 -1.375 C 18.550781 -0.289062 16.40625 0.25 14.0625 0.25 Z M 14.0625 -3.296875 C 15.707031 -3.296875 17.175781 -3.671875 18.46875 -4.421875 C 19.757812 -5.179688 20.769531 -6.257812 21.5 -7.65625 C 22.226562 -9.050781 22.59375 -10.671875 22.59375 -12.515625 C 22.59375 -14.359375 22.226562 -15.972656 21.5 -17.359375 C 20.769531 -18.742188 19.757812 -19.804688 18.46875 -20.546875 C 17.175781 -21.285156 15.707031 -21.65625 14.0625 -21.65625 C 12.40625 -21.65625 10.929688 -21.285156 9.640625 -20.546875 C 8.347656 -19.804688 7.335938 -18.742188 6.609375 -17.359375 C 5.878906 -15.972656 5.515625 -14.359375 5.515625 -12.515625 C 5.515625 -10.671875 5.878906 -9.050781 6.609375 -7.65625 C 7.335938 -6.257812 8.347656 -5.179688 9.640625 -4.421875 C 10.929688 -3.671875 12.40625 -3.296875 14.0625 -3.296875 Z M 14.0625 -3.296875 "/></g></g></g><g fill="#e74d8c" fill-opacity="1"><g transform="translate(114.907202, 353.278301)"><g><path d="M 1.328125 -12.515625 C 1.328125 -14.953125 1.894531 -17.140625 3.03125 -19.078125 C 4.164062 -21.015625 5.707031 -22.523438 7.65625 -23.609375 C 9.601562 -24.703125 11.738281 -25.25 14.0625 -25.25 C 16.707031 -25.25 19.0625 -24.597656 21.125 -23.296875 C 23.195312 -21.992188 24.703125 -20.144531 25.640625 -17.75 L 20.734375 -17.75 C 20.085938 -19.0625 19.1875 -20.039062 18.03125 -20.6875 C 16.882812 -21.332031 15.5625 -21.65625 14.0625 -21.65625 C 12.40625 -21.65625 10.929688 -21.285156 9.640625 -20.546875 C 8.347656 -19.804688 7.335938 -18.742188 6.609375 -17.359375 C 5.878906 -15.972656 5.515625 -14.359375 5.515625 -12.515625 C 5.515625 -10.671875 5.878906 -9.054688 6.609375 -7.671875 C 7.335938 -6.285156 8.347656 -5.210938 9.640625 -4.453125 C 10.929688 -3.703125 12.40625 -3.328125 14.0625 -3.328125 C 15.5625 -3.328125 16.882812 -3.648438 18.03125 -4.296875 C 19.1875 -4.941406 20.085938 -5.925781 20.734375 -7.25 L 25.640625 -7.25 C 24.703125 -4.851562 23.195312 -3.007812 21.125 -1.71875 C 19.0625 -0.425781 16.707031 0.21875 14.0625 0.21875 C 11.71875 0.21875 9.578125 -0.320312 7.640625 -1.40625 C 5.703125 -2.5 4.164062 -4.015625 3.03125 -5.953125 C 1.894531 -7.890625 1.328125 -10.078125 1.328125 -12.515625 Z M 1.328125 -12.515625 "/></g></g></g><g fill="#e74d8c" fill-opacity="1"><g transform="translate(144.886617, 353.278301)"><g><path d="M 14.0625 0.25 C 11.738281 0.25 9.601562 -0.289062 7.65625 -1.375 C 5.707031 -2.46875 4.164062 -3.988281 3.03125 -5.9375 C 1.894531 -7.882812 1.328125 -10.078125 1.328125 -12.515625 C 1.328125 -14.953125 1.894531 -17.140625 3.03125 -19.078125 C 4.164062 -21.015625 5.707031 -22.523438 7.65625 -23.609375 C 9.601562 -24.703125 11.738281 -25.25 14.0625 -25.25 C 16.40625 -25.25 18.550781 -24.703125 20.5 -23.609375 C 22.445312 -22.523438 23.976562 -21.015625 25.09375 -19.078125 C 26.21875 -17.140625 26.78125 -14.953125 26.78125 -12.515625 C 26.78125 -10.078125 26.21875 -7.882812 25.09375 -5.9375 C 23.976562 -3.988281 22.445312 -2.46875 20.5 -1.375 C 18.550781 -0.289062 16.40625 0.25 14.0625 0.25 Z M 14.0625 -3.296875 C 15.707031 -3.296875 17.175781 -3.671875 18.46875 -4.421875 C 19.757812 -5.179688 20.769531 -6.257812 21.5 -7.65625 C 22.226562 -9.050781 22.59375 -10.671875 22.59375 -12.515625 C 22.59375 -14.359375 22.226562 -15.972656 21.5 -17.359375 C 20.769531 -18.742188 19.757812 -19.804688 18.46875 -20.546875 C 17.175781 -21.285156 15.707031 -21.65625 14.0625 -21.65625 C 12.40625 -21.65625 10.929688 -21.285156 9.640625 -20.546875 C 8.347656 -19.804688 7.335938 -18.742188 6.609375 -17.359375 C 5.878906 -15.972656 5.515625 -14.359375 5.515625 -12.515625 C 5.515625 -10.671875 5.878906 -9.050781 6.609375 -7.65625 C 7.335938 -6.257812 8.347656 -5.179688 9.640625 -4.421875 C 10.929688 -3.671875 12.40625 -3.296875 14.0625 -3.296875 Z M 14.0625 -3.296875 "/></g></g></g><g fill="#e74d8c" fill-opacity="1"><g transform="translate(175.260485, 353.278301)"><g><path d="M 17.71875 -5.09375 L 7.28125 -5.09375 L 5.484375 0 L 1.21875 0 L 10.140625 -24.953125 L 14.875 -24.953125 L 23.8125 0 L 19.5 0 Z M 16.5625 -8.421875 L 12.515625 -20.015625 L 8.421875 -8.421875 Z M 16.5625 -8.421875 "/></g></g></g><g fill="#e74d8c" fill-opacity="1"><g transform="translate(202.514622, 353.278301)"><g><path d="M 1.328125 -12.515625 C 1.328125 -14.953125 1.894531 -17.140625 3.03125 -19.078125 C 4.164062 -21.015625 5.707031 -22.523438 7.65625 -23.609375 C 9.601562 -24.703125 11.738281 -25.25 14.0625 -25.25 C 16.707031 -25.25 19.0625 -24.597656 21.125 -23.296875 C 23.195312 -21.992188 24.703125 -20.144531 25.640625 -17.75 L 20.734375 -17.75 C 20.085938 -19.0625 19.1875 -20.039062 18.03125 -20.6875 C 16.882812 -21.332031 15.5625 -21.65625 14.0625 -21.65625 C 12.40625 -21.65625 10.929688 -21.285156 9.640625 -20.546875 C 8.347656 -19.804688 7.335938 -18.742188 6.609375 -17.359375 C 5.878906 -15.972656 5.515625 -14.359375 5.515625 -12.515625 C 5.515625 -10.671875 5.878906 -9.054688 6.609375 -7.671875 C 7.335938 -6.285156 8.347656 -5.210938 9.640625 -4.453125 C 10.929688 -3.703125 12.40625 -3.328125 14.0625 -3.328125 C 15.5625 -3.328125 16.882812 -3.648438 18.03125 -4.296875 C 19.1875 -4.941406 20.085938 -5.925781 20.734375 -7.25 L 25.640625 -7.25 C 24.703125 -4.851562 23.195312 -3.007812 21.125 -1.71875 C 19.0625 -0.425781 16.707031 0.21875 14.0625 0.21875 C 11.71875 0.21875 9.578125 -0.320312 7.640625 -1.40625 C 5.703125 -2.5 4.164062 -4.015625 3.03125 -5.953125 C 1.894531 -7.890625 1.328125 -10.078125 1.328125 -12.515625 Z M 1.328125 -12.515625 "/></g></g></g><g fill="#e74d8c" fill-opacity="1"><g transform="translate(232.494037, 353.278301)"><g><path d="M 22.59375 -24.921875 L 22.59375 0 L 18.5 0 L 18.5 -10.90625 L 6.78125 -10.90625 L 6.78125 0 L 2.6875 0 L 2.6875 -24.921875 L 6.78125 -24.921875 L 6.78125 -14.234375 L 18.5 -14.234375 L 18.5 -24.921875 Z M 22.59375 -24.921875 "/></g></g></g></svg>